<svg xmlns="http://www.w3.org/2000/svg" version="1.1" xmlns:xlink="http://www.w3.org/1999/xlink" xmlns:svgjs="http://svgjs.dev/svgjs" viewBox="0 0 1422 800" opacity="0.55"><defs><linearGradient x1="50%" y1="0%" x2="50%" y2="100%" id="ssscribble-grad"><stop stop-color="hsl(37, 99%, 67%)" stop-opacity="1" offset="0%"></stop><stop stop-color="hsl(316, 73%, 52%)" stop-opacity="1" offset="100%"></stop></linearGradient></defs><g fill="none" stroke-width="2.25" stroke="url(#ssscribble-grad)" stroke-linecap="round"><path d="M1339.97 454.02C1348.54 473.97 1348.39 494.67 1339.74 515.82 1324.46 536.69 1303.52 557.44 1279.34 577.35 1254.92 596.12 1232.02 612.96 1212.59 626.92 1193.01 647.42 1214.99 651.71 1223.81 662.45 1226.18 679.78 1223.99 705.52 1217.02 739.42 1206.03 778.24 1190.51 818.49 1171.17 854.57 1148.94 880.83 1124.3 893.52 1098.19 890.79 1071.19 876.66 1044.05 855.84 1017.37 837.04 991.28 830.67 966.28 841.25 942.52 870.11 919.91 911.64 898.5 955.14 878.13 987.72 858.79 999.93 840.13 988.48 821.9 959.03 804.31 926.74 786.76 905.74 769.02 907.83 751.57 935.3 733.65 977.72 715.13 1017.5 696.68 1037.63 677.5 1028.39 657.55 993.67 637.59 951.32 617.35 921.13 596.93 916.37 576.59 938.73 556.22 975.38 536.04 1008.21 516.15 1022.79 496.75 1010.57 478.14 976.01 460.17 931.77 443.39 893.07 428.16 871.75 393.45 913.4 365.69 890.02 362.87 827.72 359.05 776.4 342.25 751.27 325 765.28 308.41 776.1 288.38 781.36 265.24 778.82 239.49 768.7 212.46 750.25 185.63 725.41 160.31 695.57 138.37 663.18 121.49 630.39 110.19 597.24 105.8 565.98 108.56 537.17 116.73 509.75 130.1 484.75 146.83 461.73 163.3 439.75 178.38 418.91 189.71 398.72 194.41 378.82 192.54 358.98 183.97 339.03 168.76 319.08 150.17 299.48 130.79 280.52 104.88 253.13 90.96 208.16 107.45 193.4 126.4 186.01 149.91 181.83 175.95 180.41 202.23 178.63 227.3 177.3 249.7 174.38 267.96 166.46 281.97 153.12 291.78 132.49 296.92 104.29 298.92 69.34 298.8 29.96 293.94 -52.94 309.58 -36.67 327.33 -20.77 342.3 -30.77 359.78 -58.2 379.23 -98.82 400.14 -142.56 422.33 -177.62 445.27 -193.39 468.94 -186.7 492.84 -161 516.61 -128.01 540.62 -104.7 564.24 -102 587.27 -124.28 610.34 -164.8 632.74 -207.32 654.36 -233.63 675.97 -232.83 696.81 -204.68 716.76 -162.33 736.71 -127.6 755.31 -116.32 772.55 -132.5 797.74 -186.61 841.52 -203.8 860.37 -144.99 878.57 -92.06 912.64 -108.98 930.25 -146.35 943.56 -157.41 957.89 -148.67 973.67 -121.52 991.59 -81.95 1011.44 -38.91 1033.37 -1.23 1057.36 25.06 1083.09 37.27 1110.08 37.16 1137.61 27.22 1164.9 14.37 1190.84 4.1 1214.51 -1.24 1234.73 2.7 1250.36 16.12 1261.33 37.8 1266.64 66.26 1266.18 98.6 1261.58 133.54 1252.76 168.04 1241.11 200.5 1229.7 231.23 1219.17 258.7 1211.49 283.15 1209.33 305.39 1212.71 325.52 1222.12 344.38 1237.92 362.09 1258.14 379.63 1280.82 397.63 1304.15 415.34 1324.77 434.07 1339.97 454.02Q1339.97 454.02 1339.97 454.02" opacity="0.84"></path><path d="M1305.98 445.38C1314.25 464.16 1314.75 481.3 1307.63 496.69 1294.44 511.9 1275.77 525.04 1253.58 535.85 1230.41 546.23 1207.7 554.14 1187.24 559.67 1164.95 567.33 1150.62 582.93 1155.95 598.43 1163.01 615.38 1170.24 637.97 1176.38 666.62 1181.53 699.81 1183.6 736.25 1182.03 772.88 1173.06 817.99 1131.26 843.83 1100.91 822.95 1078.11 805.56 1054.01 792.53 1029.27 790.58 1004.08 804.44 979.04 833.21 954.5 872.48 930.33 913.49 906.96 946.38 884.46 962.21 862.56 958.04 841.46 935.88 821.07 904.7 801.16 878.85 781.73 868.6 762.65 880.52 743.82 912.72 725.12 953.94 706.46 988.78 687.86 1004.03 669.18 992.92 650.4 959.68 631.62 919.65 613.2 889.44 595.21 880.92 577.3 897.21 559.96 929.36 543.38 962.93 527.05 984.91 511.69 984.66 497.53 961.82 483.86 923.8 471.61 882.24 460.96 849.29 436.95 861.4 414.83 891.12 408.84 847.29 403 807.97 395.87 769.22 386.82 736.44 374.75 712.82 360.04 699.66 342.48 695.51 321.87 699.16 298.9 706.1 274.19 712.81 248.5 718.47 223.07 719.17 199.27 714.09 178.07 704.14 161 688.6 149.24 668.77 142.73 645.52 142.42 620.1 148.16 593.88 158.01 566.52 171.76 539.77 187.69 514.25 202.63 488.66 215.77 464.65 225.25 442.39 228.66 420.18 226.25 399.65 217.98 380.87 203.82 362.09 186.6 345.51 168.47 331.14 133.57 295.93 159.65 258.52 192.82 245.27 217.52 232.55 242.48 216.37 266.25 195.48 287.4 169.74 305.44 139.11 320 104.51 330.42 68.86 337.52 33.97 341.91 3.44 342.65 -21.32 348.33 18.94 357.97 5.26 366.75 -23.4 377.97 -62.25 391.34 -103.42 406.1 -137.18 422.61 -155.33 440.45 -153.2 459.21 -134.02 478.84 -104.69 498.96 -77.27 519.56 -65.01 540.3 -73.73 560.93 -102.94 581.73 -143.76 602.22 -181.43 622.22 -201.45 642.25 -196.66 661.72 -168.36 680.49 -128.33 699.27 -95.08 716.92 -82.06 733.46 -93.58 757.81 -142.55 802.01 -180.44 822.51 -134.38 836.45 -92.61 850.17 -58.22 863.95 -40.28 878.65 -42.35 893.88 -59.93 909.95 -84.19 927.41 -106.71 946.13 -117.29 966.28 -111.6 987.98 -90.1 1011.13 -56.17 1035.56 -16.6 1060.86 22.23 1086.71 54.09 1112.44 75.74 1137.34 85.9 1160.67 86.42 1181.47 80.81 1216.71 64.53 1211.1 111.02 1195.33 149.52 1185.86 178.42 1178.22 207.66 1173.91 236.12 1174.99 264.66 1181.14 291.54 1192.48 316.58 1209.11 341.17 1229.16 364.08 1250.85 385.44 1272.69 406.63 1291.81 426.6 1305.97 445.37Q1305.98 445.38 1305.98 445.38" opacity="0.28"></path><path d="M1271.97 377.63C1280.47 403.04 1255.92 444.45 1227.69 461.4 1206.11 472.88 1184.14 483.8 1163.36 494.92 1145.48 507.82 1130.97 522.25 1120.31 539.19 1112.85 582.22 1117.65 639.37 1127.24 705.72 1138.42 763.56 1140.26 797.62 1129.75 793.69 1109.16 768.54 1077.06 748.79 1037.55 770.94 993.49 838.17 947.68 907.85 902.89 923.32 880.59 906.77 858.85 879.87 837.75 852.27 816.86 835.69 796.58 836.31 776.91 856.32 757.38 891.11 738.36 929.75 719.83 959.31 701.35 969.98 683.29 957.34 665.68 925.67 639.71 873.05 592.4 870.22 571.35 915.84 557.82 942.54 545.49 952.54 534.44 942.14 523.59 914.31 514.07 876.25 505.86 838.2 489.63 796.13 477.46 813.59 467.26 852.08 452.5 865.23 434.06 826.19 408.5 757.38 372.86 690.64 329.28 651.35 281.44 638.73 198.38 639.24 206.85 587.99 228.41 560.95 241.66 541.7 252.86 522.24 260.57 503.11 262.79 483.78 259.92 465.2 251.97 447.59 238.84 429.99 222.97 413.78 206.14 398.82 181.86 376.49 158.27 332.92 164.1 308.7 174.99 290.25 190.9 269.5 210.67 245.87 255.99 192.12 302.17 129.28 341.11 68.45 375 21.16 392.45 57.45 401.17 6.29 411.41 -68.84 429.46 -117.88 454.19 -101.63 475.14 -63.19 523.1 -40.72 548.96 -83.4 566.57 -122.42 584.39 -154.4 602.22 -168.33 620.11 -160.11 637.91 -131.99 655.52 -94.33 673.12 -62.65 690.11 -48.22 706.51 -55.4 722.97 -81.46 738.94 -114.92 754.53 -142.92 770.35 -156.15 786 -148.37 801.65 -121.86 817.8 -84.33 834.26 -45.97 851.22 -16.51 887.51 -6.17 927.44 -44.27 971.46 -74.84 1018.2 -60.34 1066.36 1.15 1111.65 72.44 1163.27 130.77 1177.33 123.76 1150.52 142.16 1143.65 155.73 1139.21 172.57 1138.25 191.61 1142.3 212.43 1150.81 234.12 1163.64 255.84 1180.72 278.17 1200.33 299.79 1220.88 320.26 1241.19 340.84 1258.84 360.03 1271.97 377.63Q1271.97 377.63 1271.97 377.63" opacity="0.43"></path><path d="M1237.97 339C1247.99 371.86 1234.03 404.51 1201.53 438.91 1161.54 476.23 1122.39 520.06 1092.38 572.18 1077.36 626.69 1074.45 681.94 1078.89 725.66 1091.85 745.61 1073.36 712.43 1035.19 774.34 1001.35 844.43 963.1 887.49 923.41 872.72 882.42 825.59 842.3 799.17 804.28 834.72 766.3 905.17 730.59 936.41 697.73 891.67 664.87 827.69 636.42 818.79 612.42 867.8 588.46 915.17 568.81 899.99 552.85 834.07 535.59 772.43 519.72 757.87 502.92 783.77 480.53 818.01 453.18 819.1 419.26 780.57 378.55 717.26 333.73 654.08 289.48 607.86 237.54 577.79 231.34 559.23 268.87 534.58 288.69 513.2 295.99 485.2 285.97 452.34 258.29 419.48 226.72 383.32 202.87 342.73 191.94 300.16 201.91 250.86 230.27 196.46 269.67 145.38 314.11 101.1 355.94 75.59 389.51 71.16 413.85 87.16 430.16 107.4 438.03 102.88 443.69 62.83 450.71 -5.61 457.17 -65.73 468.92 -80.66 486.33 -43.11 505.62 -1.27 529.97 -4.78 558.07 -64.82 586.93 -126.52 618.21 -124.3 651.07 -60.33 683.93 -15.57 716.82 -40.14 749.93 -97.91 783.8 -120.79 819.24 -75.68 856.89 -4.46 896.43 34.4 938.8 20.81 982.99 -15.05 1026.61 -35.37 1068.13 -11.17 1103.33 46.23 1130.09 113.3 1144.71 164.92 1145.36 193.39 1130.26 199.75 1107.56 214.42 1135.53 247.05 1172.06 274.62 1210.29 306.14 1237.97 339Q1237.97 339 1237.97 339" opacity="0.69"></path><path d="M1203.97 379.77C1213.97 410.28 1202.99 446.54 1174.99 488.02 1138.7 529.55 1100.46 575.01 1067.74 619.92 1041.21 670.2 1042.23 675.4 1046.65 656.99 1045.22 674.03 1035.47 721.32 1017.89 786.78 995.37 838.75 967.05 849.45 935.35 814.63 901.5 773.71 866.69 767.92 832.59 814.99 798.12 879.47 765.21 901.5 734.7 857.67 704.18 796.99 677.51 781.04 654.44 819.67 630.99 871.18 610.29 877.86 591.26 830.94 570.08 764.42 548.15 721.88 523.64 720.31 494.19 749.44 460.13 774.69 421.57 773.26 379.99 742.15 338.13 688.89 300.7 631.24 271.14 578.56 254.31 539.39 253.21 511.7 263.56 493.5 284.44 477.92 308.95 459.65 325.17 442.68 329.97 419.44 319.97 388.92 294.68 358.41 265.57 322.08 242.02 281.51 228.1 242.23 231.77 202.3 252.3 167.61 284.48 142.42 324.6 131.33 366.09 136.98 403.68 147.61 435.03 157.07 459.44 148.19 475.87 109.63 488.04 48.21 498.75 -12.69 511.71 -35.32 554.78 28.95 587.45 -46.33 611.04 -96.75 638.29 -87.01 668.8 -26.33 699.31 17.51 731.65 1.68 765.6 -51.02 799.95 -86.33 836.51 -63.17 875 0.1 913.81 57.29 953.79 73.97 993 53.76 1029.32 20.08 1060.96 8.96 1084.52 31.92 1100.11 82.02 1104.93 142.43 1099.11 195.91 1089.4 235.91 1076.65 260.32 1066.83 275.83 1068.67 283.8 1082.37 293.85 1108.07 309.86 1143.38 325.93 1178.68 349.25 1203.97 379.77Q1203.97 379.77 1203.97 379.77" opacity="0.76"></path><path d="M1169.97 446.86C1179.85 475.03 1171.57 506.26 1147.97 538.44 1115.85 568.51 1079.72 595.19 1046.01 613.71 1011.62 624.65 994.05 609.48 996.55 633.09 998.32 678.8 994.8 738.29 985.24 790.21 972.42 812.47 953.78 795.93 930.78 754.94 905.64 728.9 877.98 742.81 849.34 796.33 820.14 852.66 791.05 866.17 762.89 823.67 734.72 766.59 708.81 744.88 684.88 772.34 660.41 822.62 636.82 846.34 613.15 822.6 587.34 765.58 559.6 708.01 529 677.34 495.15 681.51 458.23 704.48 419.55 723.87 381.19 728.43 345.69 708.02 317.09 669.4 297.04 619.7 289 569.23 294.14 524.36 307.2 484.13 327.29 450.79 348.55 421.67 361.28 394.81 363.85 368.08 353.97 339.91 331.01 311.74 304.46 283.48 281.74 257.21 265.77 233.22 264.15 215.31 277.29 206.74 301.63 202.79 335.49 206.88 373.68 213.16 411.72 208.38 446.88 188.35 477.25 146.88 501.5 90.57 521.15 34.2 537.82 0.71 557.03 18.2 600.1 53.96 629.08 -27.05 649.62 -65.39 673.98 -49.4 702.14 7.66 730.31 50.18 760.95 42.39 793.53 -3.05 826.11 -45.72 860.47 -43.61 895.65 3.06 929.91 64.7 963.42 106.51 994.05 113.58 1031.19 77.94 1059.91 89.62 1050.32 158.36 1041.46 211.62 1032.86 258.41 1029.17 296.08 1036.67 326.38 1054.32 350.93 1081.16 373.98 1114.75 394.92 1147.01 418.69 1169.97 446.86Q1169.97 446.86 1169.97 446.86" opacity="0.19"></path><path d="M1135.97 452.92C1145.61 478.74 1139.76 500.89 1120.37 518.24 1092.71 534.23 1059.71 543.49 1026.64 545.64 998.3 547.78 975.99 547.61 960.31 551.6 952.51 568.58 948.91 600.34 946.99 647.58 946.93 724.16 928.4 749.02 906.95 699.83 889.72 693.14 869.11 723.05 846.12 777.88 822.64 824.56 797.69 830.44 771.87 789.67 746.05 736.49 720.58 710.37 695.37 726.64 669.67 771.11 643.31 805.34 615.8 804.03 586.79 766.76 555.68 710.58 522.51 661.4 488.11 635.8 452.66 635.77 418.07 649.95 386.15 669.26 359.14 677.19 340.06 669.11 328.85 647.47 328.01 614.04 337.43 575.82 351.57 534.18 369.87 494.75 387.57 459.72 396.99 425.19 397.61 394.93 387.97 369.11 367.3 343.29 343.37 323.13 321.91 308.97 301.92 291.54 335.34 273.59 381.15 250.9 416.3 219.18 451.66 174.19 484.76 121.04 514.28 73.02 540.13 42.43 562.76 41.14 581.78 63.44 599.42 96.46 616.97 114.81 633 97.2 650.62 48.28 670.59 -6.14 690.27 -32.39 712.93 -11.52 738.75 41.65 764.57 82.43 792.33 81.8 821.34 45.09 850.07 0.22 879.41 -14.99 908.12 10.61 935.32 63.31 960.2 117.29 980.98 150.38 1003.75 146.1 1012.04 107.92 1001.41 133.38 995.7 169.18 992.42 211.88 994.83 254.48 1007.16 297.08 1027.66 334.79 1054.71 367.49 1086.13 398.84 1115.3 427.11 1135.97 452.92Q1135.97 452.92 1135.97 452.92" opacity="0.82"></path><path d="M1101.9 389.95C1111.25 413.42 1107.57 431.27 1092.19 444.07 1069.12 457.51 1040.05 467.68 1009.07 477.37 980.14 492.2 954.72 512.49 934.12 542.02 919.82 580.55 909.84 626.68 902.71 673.64 897.61 720.3 882.3 686.48 867.1 654.43 855.22 666.89 839.91 707.17 821.56 758.64 802.92 794.88 781.71 794.19 758.24 755.56 734.77 706.54 710.14 677.42 684.51 683.19 658.6 718.48 631.21 756.13 602.41 772.32 573.03 758.65 542.18 717.79 510.59 666.96 479.5 622.11 449.29 594.85 421.87 585.97 378.96 605.94 404.14 557.9 426 517.31 432.32 488.66 431.25 461.87 421.9 438.4 403.43 414.93 382.12 395.89 362.31 380.26 344.99 363.36 336.23 347.12 337.42 328.39 346.76 303.97 365.46 272.49 391.06 232.64 420.72 188.5 452.92 143 485.21 105.13 516.37 83.26 545.49 82.69 572.13 103.09 596.25 129.48 618.53 149.29 639.65 145.76 659.28 112.36 679.06 61.35 699.64 17.01 719.83 2.18 741.57 26.54 765.04 75.56 788.51 114.19 812.6 119.64 836.68 92.45 860.37 50.04 883.29 23.12 904.34 27.87 923.89 62.27 940.27 113.02 952.32 160.23 963.24 182.59 954.94 177.66 963.98 212.69 979.99 243.67 1002.11 276.21 1028.49 307.03 1057.37 338.49 1083.43 366.48 1101.9 389.95Q1101.9 389.95 1101.9 389.95" opacity="0.77"></path><path d="M1067.98 340.13C1076.81 361.25 1074.89 381.16 1063.1 400.69 1044.52 421.51 1019.84 444.36 992.12 471.13 964.5 501.54 938.21 537.34 914.81 577.33 895.76 616.36 880.26 651.88 867.72 676.82 855.14 683.91 833.76 627.6 819.95 622.14 810.18 649.53 797.63 693.73 782.2 738.09 766.71 763.87 748.39 757.8 727.27 721.68 706.14 677.05 683.22 646.34 658.86 642.94 634.45 667.11 608.58 701.72 581.73 727.86 555.09 735.08 528 716.53 501.54 679.33 476.6 633.72 453.88 591.38 434.98 559.86 413.73 540.57 446.78 533.35 463.53 513.69 467.17 497.84 464.81 478.88 455.98 457.76 439.71 436.64 421.07 414.34 403.2 390.36 386.37 365.27 375.74 336.66 372.73 303.79 375.9 269.18 387.22 231.28 405.26 193.33 427.83 160.79 454.31 136.82 482.68 127.12 511.8 130.95 540.62 148.23 568.2 171.85 594.65 187.06 619.59 186.66 643.06 163.96 665.52 122.33 687.2 75.7 708.41 43.37 729.29 38.62 750.29 65.05 771.41 109.68 792.54 145.8 812.79 156.14 831.75 138.52 858.75 86.23 899.34 88.65 910.38 151.55 915.07 227.58 920.51 227.22 936.63 232.91 955.13 242.75 977.78 258.33 1002.76 277.34 1028.78 297.65 1051.7 319 1067.97 340.12Q1067.98 340.13 1067.98 340.13" opacity="0.80"></path><path d="M1033.97 368.15C1042.24 386.93 1041.82 408.87 1033.27 433.79 1018.99 459.06 998.96 487.67 975.34 518.83 950.54 549.21 925.4 579.65 901.44 606.7 870.29 632.86 823.89 619.96 806.37 591.5 796.78 580.71 786.83 582.99 775.87 602.85 765.56 638.4 753.49 680.38 739.35 715.15 725.31 731.09 708.95 720.91 690.17 687.66 671.39 647.63 651.09 616.71 629.71 605.96 608.44 618.61 586.35 645.31 564.12 673.24 542.53 693.74 521.56 696.22 502.21 680.22 484.66 649.95 469.96 611.54 459.2 572.79 451.41 537.75 448.35 510.54 450.34 491.18 473.76 466.58 499.93 427.68 489.97 401.81 475.81 383.03 459.77 360.55 444.07 335 428.42 309.62 417.06 281.79 411.26 253.27 412.24 215.57 450.49 177.57 482.51 188.12 506.62 202.26 531.84 218.4 557.06 229.13 582.34 225.57 606.9 206.25 630.3 171.99 653.31 130.29 675.28 92.91 696.11 73.01 716.76 76.52 736.57 103.63 755.35 143.66 782.56 183.9 826.43 139.03 842.06 101.6 851.2 95.49 857.57 110.06 861.23 140.4 864.95 179.64 866.68 219.45 867.19 253.31 870.9 286.27 891.31 304.67 912.51 307.07 932.07 308.45 954.11 314 977.01 324.14 999.96 334.63 1019.8 349.36 1033.96 368.14Q1033.97 368.15 1033.97 368.15" opacity="0.54"></path><path d="M999.96 437.63C1009.98 470.49 993.17 512.04 957.79 551.91 915.2 580.98 870.71 588.6 831.21 567.49 798.98 546.83 771.16 546.73 744.74 594.03 721.14 665.27 693.65 698.41 660.79 653.65 627.93 589.68 592.8 576.69 559.46 613.63 528.93 655.92 505.47 648.62 494.62 599.25 491.06 532.45 500.69 474.92 519.2 434.03 530.49 403.82 533.98 376.34 523.96 343.48 482.59 293.05 453.56 235.81 489.15 262.67 525.89 268.96 568.23 241.42 609.61 175.03 651.4 114.01 690.02 113.68 722.88 177.65 755.75 222.41 779.74 202.59 794.89 155.43 810.46 132.22 819.41 167.17 825.74 230.91 840.17 295.08 861.11 338.75 891.22 366.63 931.57 383.71 972.28 404.77 999.96 437.63Q999.96 437.63 999.96 437.63" opacity="0.19"></path><path d="M965.98 458.12C975.85 486.29 965.02 508.17 938.65 518.23 904.59 523.07 865.49 512.94 827.58 497.56 792.76 501.75 761.07 532.79 732.22 590.75 705.41 646.72 678.17 662.18 650 619.68 621.83 562.6 595.41 537.83 573.41 555.27 547.31 606.41 544.69 541.21 562.71 469.09 568.43 423.71 567.85 386.92 557.98 358.75 523.54 322.15 487.59 311.61 505.86 315.77 528.97 291.4 559.35 240.72 591.66 179.33 625.38 141.25 657.84 154.6 686.01 211.68 714.18 254.18 735.38 250.13 750.48 214.8 766.98 177.49 780.55 176.33 794.36 209.06 814.96 261.35 840.93 315.44 872.19 359.41 908.64 398.16 943.02 429.95 965.97 458.11Q965.98 458.12 965.98 458.12" opacity="0.87"></path><path d="M931.98 402.94C941.27 426.41 935.31 438.43 917.22 440.8 892.42 445.55 861.45 448.4 829.16 459.97 797.02 489.27 766.16 535.43 738.06 586.86 710.9 623.02 685.25 624.31 661.78 585.68 609.52 531.85 593.31 554.91 603.94 515.75 604.82 482.34 601.27 451.19 591.98 427.72 573.54 404.25 555.24 390.68 541.42 383.41 529.35 371.49 527.01 355.65 534.02 327.24 545.44 284.87 564.01 233.23 586.33 190.8 610.08 174.9 634.91 196.66 658.38 245.68 681.85 284.31 701.74 292.53 718.67 273.57 737.03 239.35 755.09 218.08 774.43 219.55 798.18 238.75 825.42 272.53 854.7 308.45 885.72 346.76 913.53 379.46 931.97 402.93Q931.98 402.94 931.98 402.94" opacity="0.55"></path><path d="M897.97 343.92C906.25 362.7 903.97 377.85 892.93 391.94 876.97 409.7 855.28 432.77 831.12 464.11 805.77 501.55 780.14 542.72 756.25 576.33 732.49 593.18 710.56 584.91 691.78 551.67 652.98 486.2 639.22 512.87 642.3 506.55 639.58 495.74 634.25 479.36 625.97 460.58 611.81 441.8 598.14 422.4 587.32 400.67 576.35 375.71 571.4 343.88 572.84 305.83 581.07 250.03 622.76 227.26 650.23 279.67 669.01 312.91 687.41 328.79 705.34 325.7 724.18 305.86 744.1 284.6 765.18 271.78 788.35 265.04 813.22 271.28 837.95 286.06 862.53 304.51 883.81 325.14 897.97 343.92Q897.97 343.92 897.97 343.92" opacity="0.13"></path><path d="M863.98 357.91C873.85 386.07 857.89 432.54 828.57 490.47 794.18 540.72 757.04 560.18 728.88 517.68 700.71 460.6 686.84 429.8 684.32 427.28 676.73 443.55 669.85 442.73 659.98 414.56 637.02 386.39 621.25 336.21 619.57 283.03 620.05 248.63 636.4 256.6 664.57 313.68 692.73 356.18 727.38 359.55 763.82 346.22 802.41 325.2 841.02 329.74 863.98 357.91Q863.98 357.91 863.98 357.91" opacity="0.76"></path><path d="M829.97 426.68C839.68 464.24 796.92 528.96 759.37 483.67 721.81 414.15 703.68 387.12 693.97 349.56 661.41 312.01 658.52 278.15 696.08 347.67 733.63 392.96 797.41 389.13 829.97 426.68Q829.97 426.68 829.97 426.68" opacity="0.98"></path></g></svg>